<?xml version="1.0" standalone="no"?>
<!DOCTYPE svg PUBLIC "-//W3C//DTD SVG 20010904//EN"
 "http://www.w3.org/TR/2001/REC-SVG-20010904/DTD/svg10.dtd">
<svg version="1.0" xmlns="http://www.w3.org/2000/svg"
 width="123.000000pt" height="54.000000pt" viewBox="0 0 123.000000 54.000000"
 preserveAspectRatio="xMidYMid meet">

<g transform="translate(0.000000,54.000000) scale(0.100000,-0.100000)"
fill="#000000" stroke="none">
<path d="M392 527 c-16 -19 -23 -206 -16 -389 4 -91 9 -119 21 -130 15 -12 15
-11 5 9 -7 12 -12 66 -12 125 0 62 -4 108 -11 115 -8 8 -8 17 0 31 6 11 11 64
11 117 0 53 5 105 10 116 12 22 8 25 -8 6z"/>
<path d="M833 503 c-4 -10 -11 -21 -17 -25 -7 -5 -7 -8 2 -8 6 0 12 -9 12 -20
0 -11 -7 -20 -15 -20 -9 0 -15 9 -15 24 0 27 -15 42 -25 26 -3 -5 -1 -10 4
-10 15 0 14 -37 -1 -43 -7 -3 5 -6 27 -6 l41 -1 -3 42 c-1 25 3 46 10 50 9 6
9 8 -1 8 -7 0 -16 -8 -19 -17z"/>
<path d="M1184 507 c-3 -8 -4 -30 -2 -49 2 -25 8 -33 23 -33 17 0 20 7 20 45
0 35 -4 45 -18 48 -9 2 -20 -3 -23 -11z m34 -40 c2 -28 -1 -37 -12 -37 -12 0
-16 11 -16 41 0 52 24 48 28 -4z"/>
<path d="M1030 495 c0 -3 16 -13 36 -23 l36 -19 -31 -13 c-17 -7 -34 -17 -37
-22 -3 -4 15 2 40 14 25 12 43 24 41 26 -8 8 -85 41 -85 37z"/>
<path d="M617 459 c4 -12 0 -25 -8 -30 -10 -6 -5 -9 16 -8 17 0 24 3 18 6 -17
6 -16 18 3 37 14 15 13 16 -9 16 -21 0 -24 -4 -20 -21z"/>
<path d="M927 459 c4 -12 0 -25 -8 -30 -10 -6 -5 -9 16 -8 17 0 24 3 18 6 -17
6 -16 18 3 37 14 15 13 16 -9 16 -21 0 -24 -4 -20 -21z"/>
<path d="M3 275 c0 -44 2 -61 4 -37 2 23 2 59 0 80 -2 20 -4 1 -4 -43z"/>
<path d="M123 275 c0 -44 2 -61 4 -37 2 23 2 59 0 80 -2 20 -4 1 -4 -43z"/>
<path d="M614 327 c-3 -8 -4 -30 -2 -49 2 -25 8 -33 23 -33 17 0 20 7 20 45 0
35 -4 45 -18 48 -9 2 -20 -3 -23 -11z m34 -40 c2 -28 -1 -37 -12 -37 -12 0
-16 11 -16 41 0 52 24 48 28 -4z"/>
<path d="M833 323 c-4 -10 -11 -21 -17 -25 -7 -5 -7 -8 2 -8 6 0 12 -9 12 -20
0 -11 -7 -20 -15 -20 -9 0 -15 9 -15 24 0 27 -15 42 -25 26 -3 -5 -1 -10 4
-10 15 0 14 -37 -1 -43 -7 -3 5 -6 27 -6 l41 -1 -3 42 c-1 25 3 46 10 50 9 6
9 8 -1 8 -7 0 -16 -8 -19 -17z"/>
<path d="M1184 327 c-3 -8 -4 -30 -2 -49 2 -25 8 -33 23 -33 17 0 20 7 20 45
0 35 -4 45 -18 48 -9 2 -20 -3 -23 -11z m34 -40 c2 -28 -1 -37 -12 -37 -12 0
-16 11 -16 41 0 52 24 48 28 -4z"/>
<path d="M57 279 c4 -12 0 -25 -8 -30 -10 -6 -5 -9 16 -8 17 0 24 3 18 6 -17
6 -16 18 3 37 14 15 13 16 -9 16 -21 0 -24 -4 -20 -21z"/>
<path d="M927 279 c4 -12 0 -25 -8 -30 -10 -6 -5 -9 16 -8 17 0 24 3 18 6 -17
6 -16 18 3 37 14 15 13 16 -9 16 -21 0 -24 -4 -20 -21z"/>
<path d="M223 283 c15 -2 37 -2 50 0 12 2 0 4 -28 4 -27 0 -38 -2 -22 -4z"/>
<path d="M1053 283 c15 -2 37 -2 50 0 12 2 0 4 -28 4 -27 0 -38 -2 -22 -4z"/>
<path d="M223 263 c15 -2 37 -2 50 0 12 2 0 4 -28 4 -27 0 -38 -2 -22 -4z"/>
<path d="M1053 263 c15 -2 37 -2 50 0 12 2 0 4 -28 4 -27 0 -38 -2 -22 -4z"/>
<path d="M833 143 c-4 -10 -11 -21 -17 -25 -7 -5 -7 -8 2 -8 6 0 12 -9 12 -20
0 -11 -7 -20 -15 -20 -9 0 -15 9 -15 24 0 27 -15 42 -25 26 -3 -5 -1 -10 4
-10 15 0 14 -37 -1 -43 -7 -3 5 -6 27 -6 l41 -1 -3 42 c-1 25 3 46 10 50 9 6
9 8 -1 8 -7 0 -16 -8 -19 -17z"/>
<path d="M1184 147 c-3 -8 -4 -30 -2 -49 2 -25 8 -33 23 -33 17 0 20 7 20 45
0 35 -4 45 -18 48 -9 2 -20 -3 -23 -11z m34 -40 c2 -28 -1 -37 -12 -37 -12 0
-16 11 -16 41 0 52 24 48 28 -4z"/>
<path d="M1071 119 c-24 -11 -41 -22 -38 -26 12 -11 88 -43 83 -34 -3 5 -20
14 -37 21 l-31 13 36 19 c20 10 36 21 36 23 0 6 3 7 -49 -16z"/>
<path d="M617 99 c4 -12 0 -25 -8 -30 -10 -6 -5 -9 16 -8 17 0 24 3 18 6 -17
6 -16 18 3 37 14 15 13 16 -9 16 -21 0 -24 -4 -20 -21z"/>
<path d="M927 99 c4 -12 0 -25 -8 -30 -10 -6 -5 -9 16 -8 17 0 24 3 18 6 -17
6 -16 18 3 37 14 15 13 16 -9 16 -21 0 -24 -4 -20 -21z"/>
<path d="M513 93 c15 -2 37 -2 50 0 12 2 0 4 -28 4 -27 0 -38 -2 -22 -4z"/>
</g>
</svg>
